<svg width="161" height="72" viewBox="0 0 161 72" fill="none" xmlns="http://www.w3.org/2000/svg">
<path d="M38.4008 10.4761C42.7786 9.86894 47.2014 10.3337 51.598 10.2362C53.3334 10.1575 54.8738 12.2003 54.0642 13.8195C53.9475 14.1851 53.7302 14.5104 53.4372 14.7583C53.1443 15.0062 52.7874 15.1666 52.4076 15.2213C50.3199 15.4949 48.2097 15.3637 46.1107 15.3974C43.4982 15.36 40.8708 15.5136 38.2733 15.195C36.0057 14.7528 35.9982 10.6673 38.4008 10.4761Z" fill="white"/>
<path d="M7.93973 21.1775C8.0465 21.1605 8.1541 21.1493 8.26207 21.1438C11.5567 20.9938 14.87 21.26 18.1684 21.0876C20.7621 21.0651 23.3708 21.0163 25.957 21.2487C26.3943 21.2836 26.816 21.4268 27.1841 21.6654C27.5523 21.904 27.8552 22.2304 28.0657 22.6153C28.2762 23.0002 28.3875 23.4314 28.3898 23.8701C28.392 24.3087 28.285 24.741 28.0785 25.128C27.9224 25.4226 27.6967 25.6746 27.4211 25.8621C27.1454 26.0496 26.8281 26.1669 26.4968 26.2038C20.3311 26.3649 14.1579 26.3162 7.98846 26.2375C6.02818 26.32 4.96746 23.6588 6.06192 22.1858C6.52987 21.6145 7.20508 21.252 7.93973 21.1775Z" fill="white"/>
<path d="M104.447 31.0195C107.884 31.683 111.276 32.605 114.762 33.0135C117.963 33.4821 121.164 33.9618 124.391 34.2242C123.57 35.9483 122.089 37.1927 120.575 38.2909C113.143 43.647 105.815 49.2542 97.644 53.4671C93.8097 55.3862 89.8891 57.2115 85.7024 58.2235C81.8894 59.2102 77.9149 59.4066 74.0232 58.8007C71.9352 58.5037 70.0051 57.5215 68.5359 56.0084C67.0704 54.5503 66.2946 52.5376 65.9835 50.5211C65.6686 48.3022 66.1559 46.087 66.3658 43.8831C66.8868 47.2939 68.0487 50.9671 70.9872 53.0586C73.0487 54.6216 75.7736 54.5953 78.2324 54.4379C83.1574 53.9207 87.6365 51.6118 91.9806 49.3817C98.7906 45.617 105.252 41.2532 111.287 36.3419C109.915 33.5907 106.692 32.8261 104.447 31.0195Z" fill="white"/>
<path d="M151.205 37.3762C152.613 35.1529 154.16 33.021 155.838 30.9932C158.525 34.6749 160.243 38.9735 160.834 43.4932C161.291 47.4518 160.802 51.4624 159.406 55.1949C156.535 62.65 150.047 68.7894 142.217 70.6635C139.14 71.4468 135.946 71.2407 132.805 71.2669C123.78 71.2557 114.754 71.2894 105.729 71.2519C109.683 69.1642 113.724 67.2414 117.663 65.1275C120.463 63.6357 123.735 63.8868 126.797 63.9056C131.962 64.1754 137.333 64.4491 142.266 62.6087C146.526 60.8735 149.959 57.5709 151.857 53.3808C153.417 50.0402 153.781 46.2645 152.888 42.6874C152.427 40.8845 151.793 39.1379 151.205 37.3762Z" fill="white"/>
<path d="M20.4662 33.4674C20.5749 33.4135 20.6893 33.372 20.8072 33.3437C21.2295 33.261 21.6588 33.2195 22.0891 33.22C30.0089 33.0626 37.9325 33.1975 45.8523 33.145C46.7188 33.0986 47.5846 33.2472 48.3861 33.5798C48.7489 33.7613 49.0549 34.0392 49.2704 34.3829C49.4859 34.7267 49.6027 35.1231 49.6079 35.5288C49.6417 36.8669 48.9445 38.3174 47.4378 38.2088C39.0794 38.4261 30.7136 38.25 22.3515 38.3137C21.2045 38.3362 19.7315 38.1525 19.2593 36.9194C18.5284 35.6825 19.2555 34.0746 20.4662 33.4674Z" fill="white"/>
<path d="M2.66613 44.1863C6.45549 43.8228 10.2711 44.0364 14.0642 44.2051C16.2869 44.415 16.6617 47.972 14.7764 48.924C14.2826 49.1006 13.7601 49.1833 13.2359 49.1676C9.48025 49.3438 5.71337 49.3026 1.95773 49.1376C-0.103744 48.9278 -0.628483 45.888 0.822047 44.6511C1.30931 44.1789 2.04768 44.2913 2.66613 44.1863Z" fill="white"/>
<path d="M19.1503 44.3821C19.3342 44.3038 19.5287 44.2533 19.7275 44.2322C20.7657 44.1123 21.8152 44.101 22.8572 44.0073C24.5589 43.8574 26.4779 43.9024 28.0109 44.7007C28.4742 44.9449 28.8371 45.3438 29.0364 45.8281C29.2357 46.3123 29.2588 46.8511 29.1016 47.3506C29.0866 47.3956 29.0754 47.4406 29.0604 47.4818C28.9322 47.8971 28.6854 48.2659 28.3505 48.5429C28.0156 48.8199 27.607 48.9931 27.1751 49.0411C24.6575 49.3709 22.1083 49.3784 19.5888 49.0635C17.4187 48.7075 17.3137 45.2217 19.1503 44.3821Z" fill="white"/>
<path d="M11.894 67.5605C12.0759 67.2326 12.3382 66.9564 12.6562 66.7577C12.9742 66.559 13.3374 66.4445 13.7119 66.4248C17.2838 66.2299 20.8671 66.2974 24.4391 66.3686C25.3723 66.3499 26.538 66.2786 27.1302 67.1632C28.1047 68.3963 27.7599 70.8326 26.0133 71.125C21.8316 71.4111 17.6355 71.4161 13.4533 71.14C12.3551 71.1362 11.6804 70.0305 11.6017 69.0448C11.5313 68.5313 11.6341 68.009 11.894 67.5605Z" fill="white"/>
<path d="M145.193 26.2975C145.189 26.305 145.189 26.32 145.182 26.3387C145.178 26.3499 145.174 26.3649 145.17 26.3799C145.166 26.396 145.162 26.4122 145.159 26.4287C132.944 58.3441 104.563 67.2347 95.9948 69.2287C95.9695 69.2336 95.9444 69.2398 95.9198 69.2474C95.1439 69.4161 94.3606 69.5735 93.5622 69.7234C93.5247 69.7309 93.5023 69.7347 93.5023 69.7347C87.7339 71.114 81.7818 71.4326 75.871 71.4701C61.1708 71.0278 46.4594 71.4476 31.7554 71.1889C29.4316 70.8066 29.5552 66.4513 32.0065 66.3801C36.9766 66.4101 41.9428 66.2939 46.9091 66.3051C51.0996 66.3876 55.2937 66.3389 59.4841 66.4401C57.3279 64.5771 55.3731 62.493 53.652 60.2219C48.1835 60.4468 42.715 60.3456 37.2464 60.3681C30.9795 60.3868 24.7126 60.3118 18.4458 60.4393C17.7149 60.578 17.2501 59.9108 16.8903 59.3935C16.1969 58.3103 16.0919 56.6349 17.2051 55.7841C17.9847 55.1169 19.0604 55.2968 20.005 55.2818C30.3836 55.0345 40.7659 55.2893 51.1445 55.2144C50.6573 53.2204 50.2037 51.2151 49.7577 49.2136C44.7127 49.1611 39.6752 49.3973 34.634 49.2024C33.6932 49.1199 32.58 49.3523 31.8191 48.6476C31.5345 48.378 31.3114 48.0501 31.1654 47.6862C31.0193 47.3224 30.9536 46.9312 30.9728 46.5396C30.9921 46.148 31.0957 45.7652 31.2767 45.4174C31.4577 45.0696 31.7118 44.7651 32.0215 44.5247C32.8873 43.9962 33.9443 44.1536 34.9151 44.0749C39.8664 43.9999 44.8177 44.0861 49.7652 44.1311C50.5598 37.1708 54.0943 30.4879 59.709 26.23C51.4331 26.3724 43.1572 26.26 34.8776 26.305C33.8956 26.305 32.8311 26.3275 31.9765 25.769C30.4998 24.8207 30.6722 22.2832 32.1789 21.4474C32.6215 21.2428 33.1103 21.1587 33.5957 21.2038C41.613 21.1288 49.6303 21.0088 57.6438 21.1138C63.7945 21.17 69.9527 21.1363 76.1071 21.1325C76.958 19.1573 77.9287 17.2382 78.907 15.3267C71.9729 15.3079 65.0314 15.5703 58.1011 15.2405C55.5486 15.098 55.5936 10.5178 58.1198 10.3716C65.9422 9.89186 73.7833 10.4803 81.6094 10.143C82.4827 10.1655 83.1874 9.59201 83.8733 9.13099C85.4812 7.93908 86.8643 6.47731 88.4798 5.28915C83.892 5.25166 79.2856 5.63773 74.7128 5.14673C73.0974 4.77566 72.6813 2.61298 73.4535 1.33112C73.8283 0.536511 74.7428 0.270392 75.5562 0.281636C84.2818 -0.0257113 93.015 0.390333 101.741 0.0717412C110.8 -0.497976 120.256 2.32437 126.954 8.58001C128.373 9.86902 129.647 11.308 130.755 12.8716C132.783 15.8027 134.125 19.131 136.092 22.0958C134.528 25.0202 132.642 27.7608 130.47 30.2668C128.514 26.0126 127.337 21.3462 124.563 17.5043C121.507 13.43 117.261 10.4058 112.412 8.84988C108.542 7.58091 104.392 7.43535 100.444 8.43009C93.6035 10.113 87.5052 14.8806 84.518 21.2975C83.2848 23.7675 82.7039 26.5186 81.3283 28.9174C76.5719 28.775 71.5044 28.5126 67.1603 30.814C60.4324 34.0224 56.2383 41.8935 57.5276 49.2623C58.003 51.8413 59.0381 54.2848 60.5599 56.4205C62.0817 58.5562 64.0533 60.3323 66.3357 61.6237C70.1139 63.7002 74.4954 64.3711 78.7533 64.5397C78.8508 64.5435 78.9482 64.5435 79.0494 64.5435C80.4887 64.5524 81.9274 64.4861 83.3598 64.3448H83.371C87.6616 63.8822 91.8863 62.9367 95.9648 61.5262C96.2534 61.4288 96.5383 61.3313 96.8269 61.2301C96.8462 61.2243 96.865 61.2167 96.8831 61.2076C96.8943 61.2039 96.9093 61.2001 96.9206 61.1964C96.9429 61.1923 96.9643 61.1847 96.9843 61.1739C102.824 58.9426 108.423 56.1272 113.697 52.7706C122.712 47.1371 133.375 38.7563 145.193 26.2975Z" fill="white"/>
</svg>
